<?xml version="1.0" standalone="no"?>
<!DOCTYPE svg PUBLIC "-//W3C//DTD SVG 20010904//EN"
 "http://www.w3.org/TR/2001/REC-SVG-20010904/DTD/svg10.dtd">
<svg version="1.0" xmlns="http://www.w3.org/2000/svg"
 width="1320.000000pt" height="1320.000000pt" viewBox="0 0 1320.000000 1320.000000"
 preserveAspectRatio="xMidYMid meet">
<metadata>
Created by potrace 1.16, written by Peter Selinger 2001-2019
</metadata>
<g transform="translate(0.000000,1320.000000) scale(0.100000,-0.100000)"
fill="#000000" stroke="none">
<path d="M2916 11393 c-4 -4 -34 -6 -68 -5 -45 3 -58 0 -53 -9 6 -9 1 -10 -19
-5 -29 7 -148 -12 -142 -23 2 -3 -11 -6 -29 -7 -66 -1 -289 -100 -351 -155
-11 -11 -23 -17 -26 -14 -2 3 -13 -5 -24 -17 l-19 -23 25 20 25 20 -19 -22
c-10 -13 -23 -20 -28 -17 -13 8 -39 -16 -31 -30 3 -6 2 -8 -2 -3 -11 10 -66
-43 -58 -56 3 -6 2 -7 -4 -4 -9 6 -73 -63 -73 -78 0 -4 -11 -21 -24 -38 -33
-45 -42 -62 -28 -53 8 5 10 2 6 -8 -3 -9 -10 -14 -15 -11 -11 8 -31 -33 -23
-47 4 -6 3 -8 -3 -5 -6 4 -13 -1 -16 -11 -2 -9 -16 -48 -30 -85 -15 -37 -22
-65 -16 -61 6 3 4 -4 -4 -17 -20 -33 -46 -150 -55 -256 -9 -115 -9 -7431 0
-7546 9 -106 35 -223 55 -256 8 -13 10 -20 4 -17 -6 4 1 -24 16 -61 14 -37 28
-76 30 -85 3 -10 10 -15 16 -11 6 3 7 1 3 -5 -8 -14 12 -55 23 -47 5 3 12 -2
15 -11 4 -10 2 -13 -6 -8 -15 10 21 -50 49 -81 13 -14 21 -25 18 -25 -3 0 6
-16 21 -35 14 -19 31 -32 37 -28 5 3 7 2 4 -4 -8 -13 47 -66 58 -56 4 5 5 3 2
-3 -6 -11 50 -63 65 -60 3 1 17 -9 30 -20 63 -58 285 -157 353 -158 18 -1 31
-4 30 -7 -7 -10 114 -30 141 -23 20 5 25 4 19 -5 -5 -9 8 -13 51 -13 117 -1
7451 -2 7507 0 41 1 56 5 52 13 -5 8 -1 9 15 4 23 -7 152 14 146 24 -2 3 11 6
29 7 68 1 290 100 353 158 13 11 24 19 25 16 1 -3 19 8 39 24 21 15 35 33 31
39 -3 5 -2 7 4 4 13 -8 66 47 56 58 -5 4 -3 5 3 2 10 -6 74 62 74 78 0 4 11
21 24 38 33 45 42 62 28 53 -8 -5 -10 -2 -6 8 3 9 10 14 15 11 11 -8 31 33 23
47 -4 6 -3 8 3 5 6 -4 13 1 16 11 2 9 16 48 30 85 15 37 22 65 16 61 -6 -3 -4
4 4 17 20 33 46 150 55 256 9 115 9 7431 0 7546 -9 106 -35 223 -55 256 -8 13
-10 20 -4 17 6 -4 -1 24 -16 61 -14 37 -28 76 -30 85 -3 10 -10 15 -16 11 -6
-3 -7 -1 -3 5 8 14 -12 55 -23 47 -5 -3 -12 2 -15 11 -4 10 -2 13 6 8 14 -9 5
8 -28 53 -13 17 -24 34 -24 38 0 16 -64 84 -74 78 -6 -3 -8 -2 -3 2 9 11 -43
66 -55 59 -5 -3 -7 -2 -6 3 2 4 -1 9 -5 10 -4 1 -19 16 -34 33 -14 17 -28 28
-31 25 -3 -3 -15 3 -26 14 -62 55 -285 154 -351 155 -18 1 -31 3 -29 6 10 9
-102 29 -135 23 -25 -4 -32 -3 -27 6 6 9 -7 12 -46 13 -501 8 -733 7 -740 -5
-4 -6 -8 -1339 -8 -2962 0 -2580 -2 -2958 -15 -3013 -8 -35 -12 -68 -9 -74 4
-6 2 -8 -3 -5 -6 4 -16 -6 -22 -24 -6 -17 -32 -63 -58 -102 -26 -40 -46 -76
-45 -82 2 -5 0 -7 -4 -2 -4 4 -16 0 -26 -10 -20 -18 -24 -34 -7 -31 6 2 12 -6
13 -18 2 -19 -9 -22 -43 -15 -2 1 2 7 8 15 7 9 8 17 3 20 -11 6 -27 -22 -23
-39 2 -5 -1 -7 -5 -2 -4 4 -16 0 -26 -10 -20 -18 -24 -34 -7 -31 6 2 12 -6 13
-18 2 -19 -9 -22 -43 -15 -2 1 2 7 8 15 7 9 8 17 3 20 -11 6 -27 -22 -23 -39
2 -5 -1 -7 -5 -2 -4 4 -16 0 -26 -10 -20 -18 -24 -34 -7 -31 6 2 12 -6 13 -18
2 -19 -9 -22 -43 -15 -2 1 2 7 8 15 7 9 8 17 3 20 -11 6 -27 -22 -23 -39 2 -5
-1 -7 -5 -2 -4 4 -16 0 -26 -10 -20 -18 -24 -34 -7 -31 6 2 12 -6 13 -18 2
-19 -9 -22 -43 -15 -2 1 2 7 8 15 7 9 8 17 3 20 -11 6 -27 -22 -23 -39 2 -5
-1 -7 -5 -2 -4 4 -16 0 -26 -10 -20 -18 -24 -34 -7 -31 6 2 12 -6 13 -18 2
-19 -9 -22 -43 -15 -2 1 2 7 8 15 7 9 8 17 3 20 -11 6 -27 -22 -23 -39 2 -5
-1 -7 -5 -2 -4 4 -16 0 -26 -10 -20 -18 -24 -34 -7 -31 6 2 12 -6 13 -18 2
-19 -9 -22 -43 -15 -2 1 2 7 8 15 7 9 8 17 3 20 -11 6 -27 -22 -23 -39 2 -5
-1 -7 -5 -2 -4 4 -16 0 -26 -10 -20 -18 -24 -34 -7 -31 6 2 12 -6 13 -18 2
-19 -9 -22 -43 -15 -2 1 2 7 8 15 7 9 8 17 3 20 -11 6 -27 -22 -23 -39 2 -5
-1 -7 -5 -2 -4 4 -16 0 -26 -10 -20 -18 -24 -34 -7 -31 6 2 12 -6 13 -18 2
-19 -9 -22 -43 -15 -2 1 2 7 8 15 7 9 8 17 3 20 -11 6 -27 -22 -23 -39 2 -5
-1 -7 -5 -2 -4 4 -16 0 -26 -10 -20 -18 -24 -34 -7 -31 6 2 12 -6 13 -18 2
-19 -9 -22 -43 -15 -2 1 2 7 8 15 7 9 8 17 3 20 -11 6 -27 -22 -23 -39 2 -5
-1 -7 -5 -2 -4 4 -16 0 -26 -10 -20 -18 -24 -34 -7 -31 6 2 12 -6 13 -18 2
-19 -9 -22 -43 -15 -2 1 2 7 8 15 7 9 8 17 3 20 -11 6 -27 -22 -23 -39 2 -5
-1 -7 -5 -2 -4 4 -16 0 -26 -10 -20 -18 -24 -34 -7 -31 6 2 12 -6 13 -18 2
-19 -9 -22 -43 -15 -2 1 2 7 8 15 7 9 8 17 3 20 -11 6 -27 -22 -23 -39 2 -5
-1 -7 -5 -2 -4 4 -16 0 -26 -10 -20 -18 -24 -34 -7 -31 6 2 12 -6 13 -18 2
-19 -9 -22 -43 -15 -2 1 2 7 8 15 7 9 8 17 3 20 -11 6 -27 -22 -23 -39 2 -5
-1 -7 -5 -2 -4 4 -16 0 -26 -10 -20 -18 -24 -34 -7 -31 6 2 12 -6 13 -18 2
-19 -9 -22 -43 -15 -2 1 2 7 8 15 7 9 8 17 3 20 -11 6 -27 -22 -23 -39 2 -5
-1 -7 -5 -2 -4 4 -16 0 -26 -10 -20 -18 -24 -34 -7 -31 6 2 12 -6 13 -18 2
-19 -9 -22 -43 -15 -2 1 2 7 8 15 7 9 8 17 3 20 -11 6 -27 -22 -23 -39 2 -5
-1 -7 -5 -2 -4 4 -16 0 -26 -10 -20 -18 -24 -34 -7 -31 6 2 12 -6 13 -18 2
-19 -9 -22 -43 -15 -2 1 2 7 8 15 7 9 8 17 3 20 -11 6 -27 -22 -23 -39 2 -5
-1 -7 -5 -2 -4 4 -16 0 -26 -10 -20 -18 -24 -34 -7 -31 6 2 12 -6 13 -18 2
-19 -9 -22 -43 -15 -2 1 2 7 8 15 7 9 8 17 3 20 -11 6 -27 -22 -23 -39 2 -5
-1 -7 -5 -2 -4 4 -16 0 -26 -10 -20 -18 -24 -34 -7 -31 6 2 12 -6 13 -18 2
-19 -9 -22 -43 -15 -2 1 2 7 8 15 7 9 8 17 3 20 -10 6 -27 -21 -24 -37 1 -4
-4 -6 -10 -5 -7 2 -11 -4 -10 -12 2 -8 0 -12 -3 -8 -4 4 -35 -12 -69 -36 -33
-25 -80 -52 -103 -61 -25 -10 -40 -22 -36 -28 4 -6 0 -8 -9 -5 -8 4 -41 0 -74
-8 -87 -20 -2281 -20 -2368 0 -33 8 -66 12 -74 8 -9 -3 -13 -1 -9 5 4 6 -14
19 -41 30 -26 11 -77 43 -114 71 -37 27 -70 47 -73 44 -4 -4 -6 -2 -4 3 4 17
-12 45 -23 39 -5 -3 -4 -11 3 -20 6 -8 10 -14 8 -15 -34 -7 -45 -4 -43 15 1
12 7 20 13 18 17 -3 13 13 -7 31 -10 10 -22 14 -26 10 -4 -5 -7 -3 -5 2 4 17
-12 45 -23 39 -5 -3 -4 -11 3 -20 6 -8 10 -14 8 -15 -34 -7 -45 -4 -43 15 1
12 7 20 13 18 17 -3 13 13 -7 31 -10 10 -22 14 -26 10 -4 -5 -7 -3 -5 2 4 17
-12 45 -23 39 -5 -3 -4 -11 3 -20 6 -8 10 -14 8 -15 -34 -7 -45 -4 -43 15 1
12 7 20 13 18 17 -3 13 13 -7 31 -10 10 -22 14 -26 10 -4 -5 -7 -3 -5 2 4 17
-12 45 -23 39 -5 -3 -4 -11 3 -20 6 -8 10 -14 8 -15 -34 -7 -45 -4 -43 15 1
12 7 20 13 18 17 -3 13 13 -7 31 -10 10 -22 14 -26 10 -4 -5 -7 -3 -5 2 4 17
-12 45 -23 39 -5 -3 -4 -11 3 -20 6 -8 10 -14 8 -15 -34 -7 -45 -4 -43 15 1
12 7 20 13 18 17 -3 13 13 -7 31 -10 10 -22 14 -26 10 -4 -5 -7 -3 -5 2 4 17
-12 45 -23 39 -5 -3 -4 -11 3 -20 6 -8 10 -14 8 -15 -34 -7 -45 -4 -43 15 1
12 7 20 13 18 17 -3 13 13 -7 31 -10 10 -22 14 -26 10 -4 -5 -7 -3 -5 2 4 17
-12 45 -23 39 -5 -3 -4 -11 3 -20 6 -8 10 -14 8 -15 -34 -7 -45 -4 -43 15 1
12 7 20 13 18 17 -3 13 13 -7 31 -10 10 -22 14 -26 10 -4 -5 -7 -3 -5 2 4 17
-12 45 -23 39 -5 -3 -4 -11 3 -20 6 -8 10 -14 8 -15 -34 -7 -45 -4 -43 15 1
12 7 20 13 18 17 -3 13 13 -7 31 -10 10 -22 14 -26 10 -4 -5 -7 -3 -5 2 4 17
-12 45 -23 39 -5 -3 -4 -11 3 -20 6 -8 10 -14 8 -15 -34 -7 -45 -4 -43 15 1
12 7 20 13 18 17 -3 13 13 -7 31 -10 10 -22 14 -26 10 -4 -5 -7 -3 -5 2 4 17
-12 45 -23 39 -5 -3 -4 -11 3 -20 6 -8 10 -14 8 -15 -34 -7 -45 -4 -43 15 1
12 7 20 13 18 17 -3 13 13 -7 31 -10 10 -22 14 -26 10 -4 -5 -7 -3 -5 2 4 17
-12 45 -23 39 -5 -3 -4 -11 3 -20 6 -8 10 -14 8 -15 -34 -7 -45 -4 -43 15 1
12 7 20 13 18 17 -3 13 13 -7 31 -10 10 -22 14 -26 10 -4 -5 -7 -3 -5 2 4 17
-12 45 -23 39 -5 -3 -4 -11 3 -20 6 -8 10 -14 8 -15 -34 -7 -45 -4 -43 15 1
12 7 20 13 18 17 -3 13 13 -7 31 -10 10 -22 14 -26 10 -4 -5 -7 -3 -5 2 4 17
-12 45 -23 39 -5 -3 -4 -11 3 -20 6 -8 10 -14 8 -15 -34 -7 -45 -4 -43 15 1
12 7 20 13 18 17 -3 13 13 -7 31 -10 10 -22 14 -26 10 -4 -5 -7 -3 -5 2 4 17
-12 45 -23 39 -5 -3 -4 -11 3 -20 6 -8 10 -14 8 -15 -34 -7 -45 -4 -43 15 1
12 7 20 13 18 17 -3 13 13 -7 31 -10 10 -22 14 -26 10 -4 -5 -7 -3 -5 2 4 17
-12 45 -23 39 -5 -3 -4 -11 3 -20 6 -8 10 -14 8 -15 -34 -7 -45 -4 -43 15 1
12 7 20 13 19 17 -4 13 12 -7 30 -10 10 -22 14 -26 10 -4 -5 -7 -3 -5 2 4 17
-12 45 -23 39 -5 -3 -4 -11 3 -20 6 -8 10 -14 8 -15 -34 -7 -45 -4 -43 15 1
12 7 20 13 19 17 -4 13 12 -7 30 -10 10 -22 14 -26 10 -4 -5 -7 -3 -5 2 4 17
-12 45 -23 39 -5 -3 -4 -11 3 -20 6 -8 10 -14 8 -15 -34 -7 -45 -4 -43 15 1
12 7 20 13 19 6 -2 11 1 11 5 0 13 -36 43 -43 37 -4 -3 -5 -2 -2 1 2 4 -16 35
-40 69 -25 34 -45 68 -45 74 0 7 -5 9 -12 5 -7 -4 -8 -3 -4 4 3 6 -4 39 -16
74 l-23 63 0 1185 0 1185 23 63 c12 35 19 68 16 74 -4 7 -3 8 4 4 7 -4 12 -2
12 5 0 6 20 40 45 74 24 34 42 65 40 69 -3 3 -2 4 2 1 7 -6 43 24 43 37 0 4
-5 7 -11 5 -6 -1 -12 7 -13 19 -2 19 9 22 43 15 2 -1 -2 -7 -8 -15 -7 -9 -8
-17 -3 -20 11 -6 27 22 23 39 -2 6 1 7 5 2 4 -4 16 0 26 10 20 18 24 34 7 31
-6 -2 -12 6 -13 18 -2 19 9 22 43 15 2 -1 -2 -7 -8 -15 -7 -9 -8 -17 -3 -20
11 -6 27 22 23 39 -2 6 1 7 5 2 4 -4 16 0 26 10 20 18 24 34 7 31 -6 -2 -12 6
-13 18 -2 19 9 22 43 15 2 -1 -2 -7 -8 -15 -7 -9 -8 -17 -3 -20 11 -6 27 22
23 39 -2 6 1 7 5 2 4 -4 16 0 26 10 20 18 24 34 7 31 -6 -2 -12 6 -13 18 -2
19 9 22 43 15 2 -1 -2 -7 -8 -15 -7 -9 -8 -17 -3 -20 11 -6 27 22 23 39 -2 6
1 7 5 2 4 -4 16 0 26 10 20 18 24 34 7 31 -6 -2 -12 6 -13 18 -2 19 9 22 43
15 2 -1 -2 -7 -8 -15 -7 -9 -8 -17 -3 -20 11 -6 27 22 23 39 -2 5 1 7 5 2 4
-4 16 0 26 10 20 18 24 34 7 31 -6 -2 -12 6 -13 18 -2 19 9 22 43 15 2 -1 -2
-7 -8 -15 -7 -9 -8 -17 -3 -20 11 -6 27 22 23 39 -2 5 1 7 5 2 4 -4 16 0 26
10 20 18 24 34 7 31 -6 -2 -12 6 -13 18 -2 19 9 22 43 15 2 -1 -2 -7 -8 -15
-7 -9 -8 -17 -3 -20 11 -6 27 22 23 39 -2 5 1 7 5 2 4 -4 16 0 26 10 20 18 24
34 7 31 -6 -2 -12 6 -13 18 -2 19 9 22 43 15 2 -1 -2 -7 -8 -15 -7 -9 -8 -17
-3 -20 11 -6 27 22 23 39 -2 5 1 7 5 2 4 -4 16 0 26 10 20 18 24 34 7 31 -6
-2 -12 6 -13 18 -2 19 9 22 43 15 2 -1 -2 -7 -8 -15 -7 -9 -8 -17 -3 -20 11
-6 27 22 23 39 -2 5 1 7 5 2 4 -4 16 0 26 10 20 18 24 34 7 31 -6 -2 -12 6
-13 18 -2 19 9 22 43 15 2 -1 -2 -7 -8 -15 -7 -9 -8 -17 -3 -20 11 -6 27 22
23 39 -2 5 1 7 5 2 4 -4 16 0 26 10 20 18 24 34 7 31 -6 -2 -12 6 -13 18 -2
19 9 22 43 15 2 -1 -2 -7 -8 -15 -7 -9 -8 -17 -3 -20 11 -6 27 22 23 39 -2 5
1 7 5 2 4 -4 16 0 26 10 20 18 24 34 7 31 -6 -2 -12 6 -13 18 -2 19 9 22 43
15 2 -1 -2 -7 -8 -15 -7 -9 -8 -17 -3 -20 11 -6 27 22 23 39 -2 5 1 7 5 2 4
-4 16 0 26 10 20 18 24 34 7 31 -6 -2 -12 6 -13 18 -2 19 9 22 43 15 2 -1 -2
-7 -8 -15 -7 -9 -8 -17 -3 -20 11 -6 27 22 23 39 -2 5 1 7 5 2 4 -4 16 0 26
10 20 18 24 34 7 31 -6 -2 -12 6 -13 18 -2 19 9 22 43 15 2 -1 -2 -7 -8 -15
-7 -9 -8 -17 -3 -20 11 -6 27 22 23 39 -2 5 1 7 5 2 4 -4 16 0 26 10 20 18 24
34 7 31 -6 -2 -12 6 -13 18 -2 19 9 22 43 15 2 -1 -2 -7 -8 -15 -7 -9 -8 -17
-3 -20 11 -6 27 22 23 39 -2 5 1 7 5 2 4 -4 16 0 26 10 20 18 24 34 7 31 -6
-2 -12 6 -13 18 -2 19 9 22 43 15 2 -1 -2 -7 -8 -15 -7 -9 -8 -17 -3 -20 11
-6 27 22 23 39 -2 6 1 7 5 2 4 -4 16 0 26 10 20 18 24 34 7 31 -6 -2 -12 6
-13 18 -2 19 9 22 43 15 2 -1 -2 -7 -8 -15 -7 -9 -8 -17 -3 -20 11 -6 27 22
23 39 -2 6 0 7 4 3 3 -3 36 17 73 44 37 28 88 60 114 71 27 11 45 24 41 30 -4
6 0 8 9 5 8 -4 41 0 74 8 48 11 216 14 891 14 923 0 924 0 1055 -64 81 -40 82
-41 72 -23 -5 7 -1 7 12 -3 30 -22 30 -24 9 -16 -17 6 -17 4 4 -18 28 -30 57
-35 46 -8 -5 14 -4 15 6 5 10 -10 10 -16 2 -24 -8 -8 -3 -22 20 -53 43 -55 85
-152 101 -229 7 -34 15 -56 17 -49 12 35 -1 -210 -17 -323 -1 -10 -4 -18 -37
-98 -9 -21 -14 -45 -11 -55 5 -14 4 -14 -5 -2 -8 12 -11 11 -17 -5 -4 -11 -25
-39 -47 -62 -25 -26 -36 -46 -32 -54 5 -8 4 -10 -4 -5 -15 10 -43 -13 -34 -27
3 -6 1 -7 -5 -3 -14 9 -93 -34 -86 -45 3 -5 -2 -6 -10 -3 -8 3 -21 2 -28 -3
-47 -30 -114 -35 -528 -42 -235 -4 -432 -11 -440 -16 -8 -5 -28 -10 -45 -11
-38 -3 -92 -12 -125 -21 -14 -4 -32 -8 -40 -9 -43 -6 -116 -26 -127 -36 -7 -6
-13 -8 -13 -5 0 22 -258 -92 -388 -171 -142 -88 -317 -234 -308 -258 3 -7 0
-11 -7 -8 -18 7 -201 -209 -209 -247 -2 -8 -5 -16 -8 -19 -21 -21 -59 -93 -54
-102 4 -6 3 -8 -3 -5 -5 3 -26 -31 -47 -76 -42 -89 -88 -217 -79 -217 3 0 1
-6 -5 -12 -6 -7 -21 -60 -35 -118 -29 -120 -42 -206 -28 -175 7 14 10 15 10 5
1 -9 -5 -24 -13 -35 -16 -24 -20 -74 -20 -265 0 -191 4 -241 20 -265 8 -11 14
-26 13 -35 0 -10 -3 -9 -10 5 -14 31 -1 -55 28 -175 13 -58 30 -108 36 -112 6
-4 9 -10 5 -13 -5 -6 20 -92 42 -140 78 -174 143 -290 163 -290 7 -1 11 -7 9
-14 -4 -18 27 -63 38 -56 5 3 12 0 16 -6 4 -8 3 -9 -4 -5 -22 13 -12 -13 10
-28 12 -9 19 -16 15 -16 -4 0 -2 -6 5 -14 9 -10 17 -11 26 -3 9 7 16 7 25 -2
9 -10 8 -11 -5 -6 -28 11 -22 -18 9 -46 14 -13 23 -18 18 -10 -5 10 -4 12 4 7
6 -4 9 -11 7 -15 -6 -9 0 -17 66 -80 49 -47 59 -53 73 -41 9 7 13 20 10 29 -5
13 -4 13 6 4 10 -10 9 -17 -6 -33 -18 -20 -18 -21 1 -35 10 -8 26 -12 36 -9
20 6 33 -12 17 -22 -8 -4 -9 -3 -5 4 4 7 2 12 -3 12 -20 0 -11 -17 17 -36 15
-10 29 -19 32 -19 3 0 24 -15 48 -32 58 -43 304 -165 335 -166 14 -1 23 -6 20
-11 -3 -4 5 -5 17 -1 13 4 20 3 17 -2 -12 -19 276 -90 314 -78 13 5 19 3 15
-3 -10 -17 245 -35 394 -29 155 7 241 17 235 26 -2 4 22 7 53 7 31 1 58 6 60
12 2 6 9 9 17 6 15 -6 133 25 141 37 2 4 11 6 19 2 8 -3 15 0 15 6 0 6 7 8 17
4 11 -5 14 -3 8 6 -6 10 -2 11 15 6 14 -4 20 -3 16 3 -3 5 6 10 20 10 15 0 29
3 33 8 3 5 13 9 21 9 8 0 14 6 12 13 -1 8 1 11 6 8 13 -8 93 25 86 35 -3 5 1
7 8 4 17 -6 134 60 131 74 -2 5 4 8 11 5 8 -3 32 11 54 30 21 20 41 33 44 31
3 -3 11 2 19 12 8 9 9 14 2 10 -6 -4 -14 -3 -18 2 -3 6 4 8 16 6 26 -5 52 12
42 28 -3 5 -1 7 4 4 13 -8 36 17 26 27 -4 4 1 4 12 0 14 -6 17 -4 12 9 -4 10
-2 14 6 11 16 -6 121 101 113 115 -4 7 -1 9 8 5 14 -5 43 32 38 49 -1 5 2 6 7
3 11 -7 35 20 27 32 -3 6 2 16 12 23 16 13 16 13 2 -6 -14 -19 -14 -19 2 -6
10 7 16 17 13 21 -2 4 9 20 26 36 16 15 27 34 24 42 -2 7 -1 11 4 7 12 -7 43
54 34 68 -4 6 -1 7 7 2 10 -6 12 -4 7 9 -4 9 -3 14 2 11 15 -9 131 241 144
310 2 11 10 34 17 50 7 17 13 50 13 75 0 29 2 38 7 25 5 -15 9 -7 15 30 12 81
13 87 25 154 8 49 8 66 -2 79 -7 9 -8 13 -2 9 7 -4 14 7 18 31 8 48 8 4925 0
4946 -6 14 -254 16 -2733 16 -1500 0 -2731 -3 -2735 -7z m5441 -3580 c-1 -642
-2 -120 -2 1162 0 1282 1 1807 2 1168 2 -639 2 -1687 0 -2330z m1286 -2294
c-5 -5 -6 1293 -3 2884 l5 2892 3 -2884 c1 -1587 -1 -2888 -5 -2892z m-2853
1978 c14 -3 54 -14 89 -26 35 -11 67 -18 71 -16 5 3 10 2 12 -2 1 -5 28 -20
60 -35 48 -23 57 -25 62 -11 5 11 2 14 -9 9 -11 -4 -14 -2 -9 6 5 8 2 9 -10 5
-9 -4 -15 -3 -12 2 3 5 20 7 38 6 45 -4 45 -4 24 -20 -23 -17 -15 -42 17 -54
12 -5 29 -16 36 -25 16 -19 35 -22 25 -3 -4 7 -3 9 2 4 5 -5 9 -12 9 -15 0
-16 50 -62 62 -58 7 3 15 0 19 -6 4 -7 3 -8 -4 -4 -7 4 -12 3 -12 -2 0 -11 56
-64 66 -62 5 1 10 -4 12 -12 2 -9 0 -8 -7 2 -6 8 -11 10 -11 4 0 -6 7 -17 15
-24 9 -7 23 -28 31 -46 9 -19 20 -31 25 -28 5 3 6 -2 3 -10 -3 -9 -2 -16 3
-16 5 0 17 -22 27 -49 9 -27 24 -52 32 -55 8 -3 14 -11 14 -18 0 -9 -3 -9 -11
2 -9 12 -10 11 -4 -5 3 -11 9 -32 12 -48 5 -25 7 -26 20 -10 14 17 14 17 8 -2
-15 -43 -18 -58 -9 -53 11 7 19 -88 19 -222 0 -134 -8 -229 -19 -222 -9 5 -6
-10 9 -53 7 -20 6 -20 -9 -1 -14 18 -16 18 -16 3 0 -24 -61 -180 -73 -188 -5
-4 -6 -12 -2 -19 6 -9 4 -11 -5 -5 -10 6 -12 4 -7 -8 3 -9 1 -19 -5 -23 -7 -5
-8 -2 -3 6 5 9 4 11 -3 6 -7 -4 -12 -13 -12 -20 0 -7 -9 -21 -20 -31 -11 -10
-20 -23 -20 -28 0 -6 7 -2 16 9 14 18 15 18 4 -4 -7 -13 -14 -21 -18 -18 -7 7
-62 -43 -62 -56 0 -5 5 -6 12 -2 7 4 8 3 4 -4 -4 -6 -13 -9 -20 -6 -8 3 -20
-3 -27 -13 -27 -36 -107 -90 -209 -141 -30 -15 -57 -30 -58 -35 -2 -4 -7 -5
-11 -2 -4 2 -37 -5 -72 -16 -90 -28 -127 -33 -271 -33 -69 -1 -124 -5 -121 -9
3 -5 -3 -4 -13 1 -18 10 -184 53 -214 56 -8 0 -17 3 -20 6 -3 3 -30 17 -62 32
-48 23 -57 25 -62 11 -5 -11 -2 -14 9 -9 11 4 14 2 9 -6 -5 -8 -2 -9 10 -5 9
4 15 3 12 -2 -3 -5 -20 -7 -38 -6 -45 4 -45 4 -24 20 23 17 15 42 -17 54 -12
5 -29 16 -36 25 -16 19 -35 22 -25 4 4 -8 3 -10 -2 -5 -5 5 -9 12 -9 15 0 16
-50 62 -62 58 -7 -3 -15 0 -19 6 -4 7 -3 8 4 4 7 -4 12 -3 12 2 0 13 -55 63
-62 56 -4 -3 -11 5 -18 18 -11 22 -10 22 4 4 9 -11 16 -15 16 -9 0 5 -9 18
-20 28 -11 10 -20 24 -20 31 0 7 -5 16 -12 20 -7 5 -8 3 -3 -6 5 -8 4 -11 -3
-6 -6 4 -8 14 -5 23 5 12 3 14 -7 8 -10 -6 -12 -4 -7 8 3 10 3 17 -2 17 -5 0
-12 11 -15 25 -4 14 -11 25 -17 25 -6 0 -8 3 -6 8 3 4 -5 37 -17 73 -19 57
-24 64 -35 50 -11 -14 -11 -14 -5 4 15 47 17 58 7 52 -6 -4 -8 4 -6 21 3 17 1
22 -4 15 -5 -7 -9 74 -9 187 0 113 4 194 9 187 5 -7 7 -2 4 15 -2 17 0 25 6
21 10 -6 8 5 -7 52 -6 17 -5 18 5 4 10 -14 16 -4 40 63 15 44 25 88 22 97 -4
14 -3 14 6 1 9 -13 11 -13 11 3 0 9 4 17 10 17 5 0 6 7 3 17 -5 12 -3 14 7 8
10 -6 12 -4 7 8 -3 9 -1 19 5 23 7 5 8 2 3 -6 -5 -9 -4 -11 3 -6 7 4 12 13 12
20 0 7 9 21 20 31 11 10 20 23 20 29 0 6 -5 4 -11 -4 -7 -10 -9 -11 -7 -2 2 8
7 13 12 12 10 -2 66 51 66 62 0 5 -5 6 -12 2 -7 -4 -8 -3 -4 4 4 6 13 9 20 6
8 -3 20 3 27 13 15 20 83 72 114 88 25 13 31 69 6 60 -8 -3 -12 -3 -8 2 12 11
66 12 73 2 3 -5 -3 -6 -12 -2 -12 4 -15 3 -10 -5 5 -8 2 -10 -9 -6 -11 5 -14
2 -9 -9 5 -14 14 -12 62 11 32 15 59 29 62 32 3 3 12 6 20 6 8 1 51 11 95 22
44 12 89 23 100 25 24 5 300 0 335 -6z m362 -3934 c-287 -2 -757 -2 -1045 0
-287 1 -52 2 523 2 575 0 810 -1 522 -2z"/>
</g>
</svg>
